<?xml version="1.0" standalone="no"?>
<!DOCTYPE svg PUBLIC "-//W3C//DTD SVG 20010904//EN"
 "http://www.w3.org/TR/2001/REC-SVG-20010904/DTD/svg10.dtd">
<svg version="1.0" xmlns="http://www.w3.org/2000/svg"
 width="700.000000pt" height="700.000000pt" viewBox="0 0 700.000000 700.000000"
 preserveAspectRatio="xMidYMid meet">
<metadata>
Created by potrace 1.11, written by Peter Selinger 2001-2013
</metadata>
<g transform="translate(0.000000,700.000000) scale(0.100000,-0.100000)"
fill="#000000" stroke="none">
<path d="M3309 6376 c-2 -2 -35 -7 -74 -10 -38 -4 -106 -13 -150 -21 -108 -20
-114 -21 -160 -33 -22 -6 -52 -13 -67 -16 -52 -9 -303 -95 -412 -140 -263
-111 -582 -309 -781 -486 -100 -88 -268 -264 -320 -335 -17 -22 -32 -42 -35
-45 -15 -14 -91 -123 -126 -180 -128 -208 -217 -414 -273 -637 -58 -232 -58
-233 -57 -2058 l1 -1670 25 -45 c50 -89 162 -128 252 -88 32 14 255 183 288
218 3 3 52 43 110 90 58 47 114 92 125 102 11 9 169 136 350 283 182 146 395
319 475 384 80 64 150 120 157 124 6 4 81 -11 165 -33 179 -47 478 -116 593
-136 76 -13 98 -16 205 -29 56 -7 237 -7 282 0 18 2 56 7 83 9 69 6 182 25
230 38 22 5 51 12 65 15 62 10 238 67 340 108 172 70 389 189 517 284 33 25
74 55 89 66 42 29 173 145 223 196 217 221 361 419 481 664 160 326 239 670
234 1012 -2 157 -7 210 -34 343 -41 198 -84 328 -175 516 -246 514 -693 963
-1223 1228 -272 137 -563 223 -912 272 -49 6 -485 15 -491 10z m415 -410 c17
-3 58 -8 91 -11 33 -4 62 -9 65 -10 3 -2 26 -6 50 -10 25 -3 53 -8 62 -11 9
-3 26 -7 39 -9 72 -14 277 -82 369 -122 377 -164 655 -376 923 -704 55 -67
167 -239 216 -331 79 -151 158 -369 176 -489 4 -24 8 -46 10 -49 15 -24 21
-267 10 -395 -38 -446 -280 -925 -624 -1239 -19 -17 -48 -44 -65 -60 -86 -79
-338 -248 -447 -298 -323 -151 -585 -214 -879 -211 -179 1 -462 57 -909 179
-261 72 -260 72 -494 -119 -96 -78 -189 -153 -207 -167 -18 -14 -42 -33 -54
-43 -11 -11 -118 -97 -236 -192 -118 -96 -291 -237 -385 -313 -93 -77 -172
-138 -174 -136 -7 6 -4 2816 3 2901 4 46 9 93 11 105 3 12 7 40 11 62 3 22 7
43 9 47 2 3 7 20 10 38 15 85 70 232 137 365 250 497 755 911 1353 1111 109
36 290 83 358 91 23 3 48 7 56 10 8 3 55 7 105 11 50 3 92 7 94 8 5 5 280 -4
316 -9z"/>
</g>
</svg>
